0
SECTION
2
HEADER
9
$INSUNITS
70
4
9
$ACADVER
1
AC1014
9
$HANDSEED
5
FFFF
0
ENDSEC
0
SECTION
2
TABLES
0
TABLE
2
VPORT
5
8
100
AcDbSymbolTable
0
ENDTAB
0
TABLE
2
LTYPE
5
5
100
AcDbSymbolTable
0
LTYPE
5
14
100
AcDbSymbolTableRecord
100
AcDbLinetypeTableRecord
2
BYBLOCK
70
0
0
LTYPE
5
15
100
AcDbSymbolTableRecord
100
AcDbLinetypeTableRecord
2
BYLAYER
70
0
0
ENDTAB
0
TABLE
2
LAYER
5
2
100
AcDbSymbolTable
70
2
0
LAYER
5
50
100
AcDbSymbolTableRecord
100
AcDbLayerTableRecord
2
0
70
0
6
CONTINUOUS
0
ENDTAB
0
TABLE
2
STYLE
5
3
100
AcDbSymbolTable
70
1
0
STYLE
5
11
100
AcDbSymbolTableRecord
100
AcDbTextStyleTableRecord
2
STANDARD
70
0
0
ENDTAB
0
TABLE
2
VIEW
5
6
100
AcDbSymbolTable
70
0
0
ENDTAB
0
TABLE
2
UCS
5
7
100
AcDbSymbolTable
70
0
0
ENDTAB
0
TABLE
2
APPID
5
9
100
AcDbSymbolTable
70
2
0
APPID
5
12
100
AcDbSymbolTableRecord
100
AcDbRegAppTableRecord
2
ACAD
70
0
0
ENDTAB
0
TABLE
2
DIMSTYLE
5
A
100
AcDbSymbolTable
70
1
0
ENDTAB
0
TABLE
2
BLOCK_RECORD
5
1
100
AcDbSymbolTable
70
1
0
BLOCK_RECORD
5
1F
100
AcDbSymbolTableRecord
100
AcDbBlockTableRecord
2
*MODEL_SPACE
0
BLOCK_RECORD
5
1B
100
AcDbSymbolTableRecord
100
AcDbBlockTableRecord
2
*PAPER_SPACE
0
ENDTAB
0
ENDSEC
0
SECTION
2
BLOCKS
0
BLOCK
5
20
100
AcDbEntity
100
AcDbBlockBegin
2
*MODEL_SPACE
0
ENDBLK
5
21
100
AcDbEntity
100
AcDbBlockEnd
0
BLOCK
5
1C
100
AcDbEntity
100
AcDbBlockBegin
2
*PAPER_SPACE
0
ENDBLK
5
1D
100
AcDbEntity
100
AcDbBlockEnd
0
ENDSEC
0
SECTION
2
ENTITIES
0
LWPOLYLINE
5
100
100
AcDbEntity
8
0
100
AcDbPolyline
90
4
70
1
43
0.0
10
3.462132034355911
20
7.1337049096097607
10
5.8662950903902242
20
9.5378679656440788
10
3.0378679656440544
20
12.366295090390247
10
0.63370490960974635
20
9.962132034355939
0
LWPOLYLINE
5
101
100
AcDbEntity
8
0
100
AcDbPolyline
90
4
70
1
43
0.0
10
16.462132034355911
20
-18.866295090390235
10
18.866295090390224
20
-16.462132034355918
10
16.037867965644054
20
-13.633704909609749
10
13.633704909609746
20
-16.037867965644061
0
LWPOLYLINE
5
102
100
AcDbEntity
8
0
100
AcDbPolyline
90
4
70
1
43
0.0
10
3.462132034355911
20
-12.366295090390235
10
5.8662950903902242
20
-9.9621320343559194
10
3.0378679656440544
20
-7.1337049096097518
10
0.63370490960974635
20
-9.5378679656440593
0
LWPOLYLINE
5
103
100
AcDbEntity
8
0
100
AcDbPolyline
90
4
70
1
43
0.0
10
3.462132034355911
20
20.133704909609762
10
5.8662950903902242
20
22.537867965644075
10
3.0378679656440544
20
25.366295090390242
10
0.63370490960974635
20
22.962132034355935
0
LWPOLYLINE
5
104
100
AcDbEntity
8
0
100
AcDbPolyline
90
4
70
1
43
0.0
10
9.9621320343559088
20
13.633704909609762
10
12.366295090390224
20
16.037867965644075
10
9.5378679656440539
20
18.866295090390246
10
7.1337049096097456
20
16.462132034355935
0
LWPOLYLINE
5
105
100
AcDbEntity
8
0
100
AcDbPolyline
90
4
70
1
43
0.0
10
-9.5378679656440877
20
13.633704909609762
10
-7.133704909609774
20
16.037867965644075
10
-9.9621320343559443
20
18.866295090390246
10
-12.366295090390251
20
16.462132034355935
0
LWPOLYLINE
5
106
100
AcDbEntity
8
0
100
AcDbPolyline
90
4
70
1
43
0.0
10
-9.5378679656440877
20
20.133704909609762
10
-7.133704909609774
20
22.537867965644075
10
-9.9621320343559443
20
25.366295090390242
10
-12.366295090390251
20
22.962132034355935
0
LWPOLYLINE
5
107
100
AcDbEntity
8
0
100
AcDbPolyline
90
4
70
1
43
0.0
10
-3.0378679656440881
20
20.133704909609762
10
-0.63370490960977466
20
22.537867965644075
10
-3.4621320343559447
20
25.366295090390242
10
-5.8662950903902527
20
22.962132034355935
0
LWPOLYLINE
5
108
100
AcDbEntity
8
0
100
AcDbPolyline
90
4
70
1
43
0.0
10
-3.0378679656440881
20
7.1337049096097607
10
-0.63370490960977466
20
9.5378679656440788
10
-3.4621320343559447
20
12.366295090390247
10
-5.8662950903902527
20
9.962132034355939
0
LWPOLYLINE
5
109
100
AcDbEntity
8
0
100
AcDbPolyline
90
4
70
1
43
0.0
10
-16.037867965644086
20
-18.866295090390235
10
-13.633704909609772
20
-16.462132034355918
10
-16.462132034355943
20
-13.633704909609749
10
-18.866295090390249
20
-16.037867965644061
0
LWPOLYLINE
5
110
100
AcDbEntity
8
0
100
AcDbPolyline
90
4
70
1
43
0.0
10
-16.037867965644086
20
0.63370490960976156
10
-13.633704909609772
20
3.0378679656440788
10
-16.462132034355943
20
5.8662950903902464
10
-18.866295090390249
20
3.462132034355939
0
LWPOLYLINE
5
111
100
AcDbEntity
8
0
100
AcDbPolyline
90
4
70
1
43
0.0
10
-16.037867965644086
20
-5.8662950903902376
10
-13.633704909609772
20
-3.4621320343559203
10
-16.462132034355943
20
-0.63370490960975245
10
-18.866295090390249
20
-3.0378679656440601
0
LWPOLYLINE
5
112
100
AcDbEntity
8
0
100
AcDbPolyline
90
4
70
1
43
0.0
10
3.462132034355911
20
-25.366295090390231
10
5.8662950903902242
20
-22.962132034355914
10
3.0378679656440544
20
-20.133704909609747
10
0.63370490960974635
20
-22.537867965644054
0
LWPOLYLINE
5
113
100
AcDbEntity
8
0
100
AcDbPolyline
90
4
70
1
43
0.0
10
16.462132034355911
20
-5.8662950903902376
10
18.866295090390224
20
-3.4621320343559203
10
16.037867965644054
20
-0.63370490960975245
10
13.633704909609746
20
-3.0378679656440601
0
LWPOLYLINE
5
114
100
AcDbEntity
8
0
100
AcDbPolyline
90
4
70
1
43
0.0
10
22.962132034355911
20
-5.8662950903902376
10
25.366295090390221
20
-3.4621320343559203
10
22.53786796564405
20
-0.63370490960975245
10
20.13370490960974
20
-3.0378679656440601
0
LWPOLYLINE
5
115
100
AcDbEntity
8
0
100
AcDbPolyline
90
4
70
1
43
0.0
10
-22.537867965644082
20
-25.366295090390231
10
-20.133704909609769
20
-22.962132034355914
10
-22.962132034355939
20
-20.133704909609747
10
-25.366295090390246
20
-22.537867965644054
0
LWPOLYLINE
5
116
100
AcDbEntity
8
0
100
AcDbPolyline
90
4
70
1
43
0.0
10
-22.537867965644082
20
-18.866295090390235
10
-20.133704909609769
20
-16.462132034355918
10
-22.962132034355939
20
-13.633704909609749
10
-25.366295090390246
20
-16.037867965644061
0
LWPOLYLINE
5
117
100
AcDbEntity
8
0
100
AcDbPolyline
90
4
70
1
43
0.0
10
16.462132034355911
20
-12.366295090390235
10
18.866295090390224
20
-9.9621320343559194
10
16.037867965644054
20
-7.1337049096097518
10
13.633704909609746
20
-9.5378679656440593
0
LWPOLYLINE
5
118
100
AcDbEntity
8
0
100
AcDbPolyline
90
4
70
1
43
0.0
10
9.9621320343559088
20
-5.8662950903902376
10
12.366295090390224
20
-3.4621320343559203
10
9.5378679656440539
20
-0.63370490960975245
10
7.1337049096097456
20
-3.0378679656440601
0
LWPOLYLINE
5
119
100
AcDbEntity
8
0
100
AcDbPolyline
90
4
70
1
43
0.0
10
22.962132034355911
20
-25.366295090390231
10
25.366295090390221
20
-22.962132034355914
10
22.53786796564405
20
-20.133704909609747
10
20.13370490960974
20
-22.537867965644054
0
LWPOLYLINE
5
120
100
AcDbEntity
8
0
100
AcDbPolyline
90
4
70
1
43
0.0
10
-9.5378679656440877
20
-5.8662950903902376
10
-7.133704909609774
20
-3.4621320343559203
10
-9.9621320343559443
20
-0.63370490960975245
10
-12.366295090390251
20
-3.0378679656440601
0
LWPOLYLINE
5
121
100
AcDbEntity
8
0
100
AcDbPolyline
90
4
70
1
43
0.0
10
-9.5378679656440877
20
-12.366295090390235
10
-7.133704909609774
20
-9.9621320343559194
10
-9.9621320343559443
20
-7.1337049096097518
10
-12.366295090390251
20
-9.5378679656440593
0
LWPOLYLINE
5
122
100
AcDbEntity
8
0
100
AcDbPolyline
90
4
70
1
43
0.0
10
-22.537867965644082
20
-5.8662950903902376
10
-20.133704909609769
20
-3.4621320343559203
10
-22.962132034355939
20
-0.63370490960975245
10
-25.366295090390246
20
-3.0378679656440601
0
LWPOLYLINE
5
123
100
AcDbEntity
8
0
100
AcDbPolyline
90
4
70
1
43
0.0
10
-16.037867965644086
20
13.633704909609762
10
-13.633704909609772
20
16.037867965644075
10
-16.462132034355943
20
18.866295090390246
10
-18.866295090390249
20
16.462132034355935
0
LWPOLYLINE
5
124
100
AcDbEntity
8
0
100
AcDbPolyline
90
4
70
1
43
0.0
10
-3.0378679656440881
20
0.63370490960976156
10
-0.63370490960977466
20
3.0378679656440788
10
-3.4621320343559447
20
5.8662950903902464
10
-5.8662950903902527
20
3.462132034355939
0
LWPOLYLINE
5
125
100
AcDbEntity
8
0
100
AcDbPolyline
90
4
70
1
43
0.0
10
-22.537867965644082
20
7.1337049096097607
10
-20.133704909609769
20
9.5378679656440788
10
-22.962132034355939
20
12.366295090390247
10
-25.366295090390246
20
9.962132034355939
0
LWPOLYLINE
5
126
100
AcDbEntity
8
0
100
AcDbPolyline
90
4
70
1
43
0.0
10
22.962132034355911
20
7.1337049096097607
10
25.366295090390221
20
9.5378679656440788
10
22.53786796564405
20
12.366295090390247
10
20.13370490960974
20
9.962132034355939
0
LWPOLYLINE
5
127
100
AcDbEntity
8
0
100
AcDbPolyline
90
4
70
1
43
0.0
10
22.962132034355911
20
13.633704909609762
10
25.366295090390221
20
16.037867965644075
10
22.53786796564405
20
18.866295090390246
10
20.13370490960974
20
16.462132034355935
0
LWPOLYLINE
5
128
100
AcDbEntity
8
0
100
AcDbPolyline
90
4
70
1
43
0.0
10
20.13370490960974
20
22.962132034355935
10
22.962132034355911
20
20.133704909609762
10
25.366295090390221
20
22.537867965644075
10
22.53786796564405
20
25.366295090390242
0
LWPOLYLINE
5
129
100
AcDbEntity
8
0
100
AcDbPolyline
90
4
70
1
43
0.0
10
9.9621320343559088
20
-12.366295090390235
10
12.366295090390224
20
-9.9621320343559194
10
9.5378679656440539
20
-7.1337049096097518
10
7.1337049096097456
20
-9.5378679656440593
0
LWPOLYLINE
5
130
100
AcDbEntity
8
0
100
AcDbPolyline
90
4
70
1
43
0.0
10
22.962132034355911
20
0.63370490960976156
10
25.366295090390221
20
3.0378679656440788
10
22.53786796564405
20
5.8662950903902464
10
20.13370490960974
20
3.462132034355939
0
LWPOLYLINE
5
131
100
AcDbEntity
8
0
100
AcDbPolyline
90
4
70
1
43
0.0
10
3.462132034355911
20
0.63370490960976156
10
5.8662950903902242
20
3.0378679656440788
10
3.0378679656440544
20
5.8662950903902464
10
0.63370490960974635
20
3.462132034355939
0
LWPOLYLINE
5
132
100
AcDbEntity
8
0
100
AcDbPolyline
90
4
70
1
43
0.0
10
9.9621320343559088
20
7.1337049096097607
10
12.366295090390224
20
9.5378679656440788
10
9.5378679656440539
20
12.366295090390247
10
7.1337049096097456
20
9.962132034355939
0
LWPOLYLINE
5
133
100
AcDbEntity
8
0
100
AcDbPolyline
90
4
70
1
43
0.0
10
9.9621320343559088
20
-18.866295090390235
10
12.366295090390224
20
-16.462132034355918
10
9.5378679656440539
20
-13.633704909609749
10
7.1337049096097456
20
-16.037867965644061
0
LWPOLYLINE
5
134
100
AcDbEntity
8
0
100
AcDbPolyline
90
4
70
1
43
0.0
10
22.962132034355911
20
-18.866295090390235
10
25.366295090390221
20
-16.462132034355918
10
22.53786796564405
20
-13.633704909609749
10
20.13370490960974
20
-16.037867965644061
0
LWPOLYLINE
5
135
100
AcDbEntity
8
0
100
AcDbPolyline
90
4
70
1
43
0.0
10
16.462132034355911
20
20.133704909609762
10
18.866295090390224
20
22.537867965644075
10
16.037867965644054
20
25.366295090390242
10
13.633704909609746
20
22.962132034355935
0
LWPOLYLINE
5
136
100
AcDbEntity
8
0
100
AcDbPolyline
90
4
70
1
43
0.0
10
16.462132034355911
20
13.633704909609762
10
18.866295090390224
20
16.037867965644075
10
16.037867965644054
20
18.866295090390246
10
13.633704909609746
20
16.462132034355935
0
LWPOLYLINE
5
137
100
AcDbEntity
8
0
100
AcDbPolyline
90
4
70
1
43
0.0
10
-22.537867965644082
20
13.633704909609762
10
-20.133704909609769
20
16.037867965644075
10
-22.962132034355939
20
18.866295090390246
10
-25.366295090390246
20
16.462132034355935
0
LWPOLYLINE
5
138
100
AcDbEntity
8
0
100
AcDbPolyline
90
4
70
1
43
0.0
10
-16.037867965644086
20
20.133704909609762
10
-13.633704909609772
20
22.537867965644075
10
-16.462132034355943
20
25.366295090390242
10
-18.866295090390249
20
22.962132034355935
0
LWPOLYLINE
5
139
100
AcDbEntity
8
0
100
AcDbPolyline
90
4
70
1
43
0.0
10
-16.037867965644086
20
7.1337049096097607
10
-13.633704909609772
20
9.5378679656440788
10
-16.462132034355943
20
12.366295090390247
10
-18.866295090390249
20
9.962132034355939
0
LWPOLYLINE
5
140
100
AcDbEntity
8
0
100
AcDbPolyline
90
4
70
1
43
0.0
10
-22.537867965644082
20
0.63370490960976156
10
-20.133704909609769
20
3.0378679656440788
10
-22.962132034355939
20
5.8662950903902464
10
-25.366295090390246
20
3.462132034355939
0
LWPOLYLINE
5
141
100
AcDbEntity
8
0
100
AcDbPolyline
90
4
70
1
43
0.0
10
-3.0378679656440881
20
-18.866295090390235
10
-0.63370490960977466
20
-16.462132034355918
10
-3.4621320343559447
20
-13.633704909609749
10
-5.8662950903902527
20
-16.037867965644061
0
LWPOLYLINE
5
142
100
AcDbEntity
8
0
100
AcDbPolyline
90
4
70
1
43
0.0
10
-9.5378679656440877
20
0.63370490960976156
10
-7.133704909609774
20
3.0378679656440788
10
-9.9621320343559443
20
5.8662950903902464
10
-12.366295090390251
20
3.462132034355939
0
LWPOLYLINE
5
143
100
AcDbEntity
8
0
100
AcDbPolyline
90
4
70
1
43
0.0
10
-3.0378679656440881
20
-12.366295090390235
10
-0.63370490960977466
20
-9.9621320343559194
10
-3.4621320343559447
20
-7.1337049096097518
10
-5.8662950903902527
20
-9.5378679656440593
0
LWPOLYLINE
5
144
100
AcDbEntity
8
0
100
AcDbPolyline
90
4
70
1
43
0.0
10
16.462132034355911
20
-25.366295090390231
10
18.866295090390224
20
-22.962132034355914
10
16.037867965644054
20
-20.133704909609747
10
13.633704909609746
20
-22.537867965644054
0
LWPOLYLINE
5
145
100
AcDbEntity
8
0
100
AcDbPolyline
90
4
70
1
43
0.0
10
3.462132034355911
20
-5.8662950903902376
10
5.8662950903902242
20
-3.4621320343559203
10
3.0378679656440544
20
-0.63370490960975245
10
0.63370490960974635
20
-3.0378679656440601
0
LWPOLYLINE
5
146
100
AcDbEntity
8
0
100
AcDbPolyline
90
4
70
1
43
0.0
10
-3.0378679656440881
20
-25.366295090390231
10
-0.63370490960977466
20
-22.962132034355914
10
-3.4621320343559447
20
-20.133704909609747
10
-5.8662950903902527
20
-22.537867965644054
0
LWPOLYLINE
5
147
100
AcDbEntity
8
0
100
AcDbPolyline
90
4
70
1
43
0.0
10
-9.5378679656440877
20
-25.366295090390231
10
-7.133704909609774
20
-22.962132034355914
10
-9.9621320343559443
20
-20.133704909609747
10
-12.366295090390251
20
-22.537867965644054
0
LWPOLYLINE
5
148
100
AcDbEntity
8
0
100
AcDbPolyline
90
4
70
1
43
0.0
10
-16.037867965644086
20
-25.366295090390231
10
-13.633704909609772
20
-22.962132034355914
10
-16.462132034355943
20
-20.133704909609747
10
-18.866295090390249
20
-22.537867965644054
0
LWPOLYLINE
5
149
100
AcDbEntity
8
0
100
AcDbPolyline
90
4
70
1
43
0.0
10
22.962132034355911
20
-12.366295090390235
10
25.366295090390221
20
-9.9621320343559194
10
22.53786796564405
20
-7.1337049096097518
10
20.13370490960974
20
-9.5378679656440593
0
LWPOLYLINE
5
150
100
AcDbEntity
8
0
100
AcDbPolyline
90
4
70
1
43
0.0
10
9.9621320343559088
20
-25.366295090390231
10
12.366295090390224
20
-22.962132034355914
10
9.5378679656440539
20
-20.133704909609747
10
7.1337049096097456
20
-22.537867965644054
0
LWPOLYLINE
5
151
100
AcDbEntity
8
0
100
AcDbPolyline
90
4
70
1
43
0.0
10
-16.037867965644086
20
-12.366295090390235
10
-13.633704909609772
20
-9.9621320343559194
10
-16.462132034355943
20
-7.1337049096097518
10
-18.866295090390249
20
-9.5378679656440593
0
LWPOLYLINE
5
152
100
AcDbEntity
8
0
100
AcDbPolyline
90
4
70
1
43
0.0
10
-3.0378679656440881
20
-5.8662950903902376
10
-0.63370490960977466
20
-3.4621320343559203
10
-3.4621320343559447
20
-0.63370490960975245
10
-5.8662950903902527
20
-3.0378679656440601
0
LWPOLYLINE
5
153
100
AcDbEntity
8
0
100
AcDbPolyline
90
4
70
1
43
0.0
10
-9.5378679656440877
20
-18.866295090390235
10
-7.133704909609774
20
-16.462132034355918
10
-9.9621320343559443
20
-13.633704909609749
10
-12.366295090390251
20
-16.037867965644061
0
LWPOLYLINE
5
154
100
AcDbEntity
8
0
100
AcDbPolyline
90
4
70
1
43
0.0
10
-22.537867965644082
20
-12.366295090390235
10
-20.133704909609769
20
-9.9621320343559194
10
-22.962132034355939
20
-7.1337049096097518
10
-25.366295090390246
20
-9.5378679656440593
0
LWPOLYLINE
5
155
100
AcDbEntity
8
0
100
AcDbPolyline
90
4
70
1
43
0.0
10
-22.537867965644082
20
20.133704909609762
10
-20.133704909609769
20
22.537867965644075
10
-22.962132034355939
20
25.366295090390242
10
-25.366295090390246
20
22.962132034355935
0
LWPOLYLINE
5
156
100
AcDbEntity
8
0
100
AcDbPolyline
90
4
70
1
43
0.0
10
-3.0378679656440881
20
13.633704909609762
10
-0.63370490960977466
20
16.037867965644075
10
-3.4621320343559447
20
18.866295090390246
10
-5.8662950903902527
20
16.462132034355935
0
LWPOLYLINE
5
157
100
AcDbEntity
8
0
100
AcDbPolyline
90
4
70
1
43
0.0
10
-9.5378679656440877
20
7.1337049096097607
10
-7.133704909609774
20
9.5378679656440788
10
-9.9621320343559443
20
12.366295090390247
10
-12.366295090390251
20
9.962132034355939
0
LWPOLYLINE
5
158
100
AcDbEntity
8
0
100
AcDbPolyline
90
4
70
1
43
0.0
10
16.462132034355911
20
7.1337049096097607
10
18.866295090390224
20
9.5378679656440788
10
16.037867965644054
20
12.366295090390247
10
13.633704909609746
20
9.962132034355939
0
LWPOLYLINE
5
159
100
AcDbEntity
8
0
100
AcDbPolyline
90
4
70
1
43
0.0
10
3.462132034355911
20
13.633704909609762
10
5.8662950903902242
20
16.037867965644075
10
3.0378679656440544
20
18.866295090390246
10
0.63370490960974635
20
16.462132034355935
0
LWPOLYLINE
5
160
100
AcDbEntity
8
0
100
AcDbPolyline
90
4
70
1
43
0.0
10
9.9621320343559088
20
20.133704909609762
10
12.366295090390224
20
22.537867965644075
10
9.5378679656440539
20
25.366295090390242
10
7.1337049096097456
20
22.962132034355935
0
LWPOLYLINE
5
161
100
AcDbEntity
8
0
100
AcDbPolyline
90
4
70
1
43
0.0
10
3.462132034355911
20
-18.866295090390235
10
5.8662950903902242
20
-16.462132034355918
10
3.0378679656440544
20
-13.633704909609749
10
0.63370490960974635
20
-16.037867965644061
0
LWPOLYLINE
5
162
100
AcDbEntity
8
0
100
AcDbPolyline
90
4
70
1
43
0.0
10
9.9621320343559088
20
0.63370490960976156
10
12.366295090390224
20
3.0378679656440788
10
9.5378679656440539
20
5.8662950903902464
10
7.1337049096097456
20
3.462132034355939
0
LWPOLYLINE
5
163
100
AcDbEntity
8
0
100
AcDbPolyline
90
4
70
1
43
0.0
10
16.462132034355911
20
0.63370490960976156
10
18.866295090390224
20
3.0378679656440788
10
16.037867965644054
20
5.8662950903902464
10
13.633704909609746
20
3.462132034355939
0
CIRCLE
5
164
100
AcDbEntity
8
0
100
AcDbCircle
10
-27
20
-7.0000000000000018
30
0
40
1.4999999999999991
0
CIRCLE
5
165
100
AcDbEntity
8
0
100
AcDbCircle
10
-7.0000000000000018
20
-27
30
0
40
1.5000000000000002
0
CIRCLE
5
166
100
AcDbEntity
8
0
100
AcDbCircle
10
-27
20
0
30
0
40
1.4999999999999991
0
CIRCLE
5
167
100
AcDbEntity
8
0
100
AcDbCircle
10
0
20
-27
30
0
40
1.5000000000000002
0
LWPOLYLINE
5
168
100
AcDbEntity
8
0
100
AcDbPolyline
90
4
70
1
43
0.0
10
30
20
-30
10
-30
20
-30
10
-29.999999999999996
20
30
10
30.000000000000004
20
30
0
ENDSEC
0
SECTION
2
OBJECTS
0
DICTIONARY
5
C
100
AcDbDictionary
3
ACAD_GROUP
350
D
3
ACAD_MLINESTYLE
350
17
0
DICTIONARY
5
D
100
AcDbDictionary
0
DICTIONARY
5
1A
330
C
100
AcDbDictionary
0
DICTIONARY
5
17
100
AcDbDictionary
0
ENDSEC
0
EOF
